<svg version="1.2" xmlns="http://www.w3.org/2000/svg" viewBox="0 0 420 56" width="420" height="56"><style>.a{fill:#211915}.b{fill:#6887a6}</style><path class="a" d="m151.9 52.9h17.6v-2.3h-3.8c-0.1 0-0.4-0.1-0.9-0.2q-0.2-0.1-0.4-0.1-0.2-0.1-0.4-0.2-0.2 0-0.4-0.1-0.2-0.1-0.4-0.2c-0.5-0.6-0.7-1.3-0.7-2.5v-39.7l15.2 45.3h5.1l15.4-45.4v40.6c0 0.7-0.3 1.3-0.8 1.7-0.4 0.3-1.4 0.6-2.4 0.8h-3.9v2.3h25v-2.3h-3.7c-2.2 0-3.5-1.3-3.5-3.3v-37.5c0-1.5 0.1-2 0.8-2.5 0.5-0.4 1.5-0.7 2.6-0.8h3.9v-2.5h-20.4l-11.8 34.6-11.5-34.6h-20.6v2.4h3.7c2.1 0 3.4 1.3 3.4 3.4v36.1l0.1 1.4c0 1.9-1.5 3.3-3.5 3.3h-3.7zm65.2-46.7h3.9c0.1 0 0.5 0.2 0.9 0.3 0.6 0.2 1.2 0.4 1.5 0.6 0.5 0.5 0.7 1 0.7 1.8v31c0 5.5 1.5 8.7 5.1 10.7 3.2 1.9 8.3 3.1 13.3 3.1 5.6 0 11.1-1.6 13.9-3.9 1.4-1.3 2.6-3.2 3.1-5.4 0.6-1.8 0.8-4.1 0.8-6.6v-28.2c0-2 1.5-3.4 3.6-3.4h3.8v-2.2h-17.8v2.2h3.8c1.9 0 3.2 1.5 3.2 3.4v28.6c0 7.7-3.2 10.9-11.2 10.9-5.3 0-9.2-1.8-10.4-5-0.4-1-0.6-2.4-0.6-5.3v-29.2c0-1.9 1.4-3.4 3.5-3.4h3.7v-2.2h-24.8zm51.6 46.6h18v-2.3h-3.9c-0.1 0-0.5 0-1-0.1-0.6-0.2-1.2-0.4-1.6-0.7-0.6-0.5-0.9-1.1-0.9-2.5v-33.3l24.9 38.9h7.6v-44c0-1 0.8-1.8 2.3-2.3 0.4 0 0.8-0.2 0.9-0.2h3.8v-2.3h-17.5v2.3h3.7c2.1 0 3.5 1.4 3.5 3.4v30.3l-23.1-36h-16.6v2.4h3.7c2 0 3.5 1.3 3.5 3.3v37.5c0 2-1.5 3.3-3.6 3.3h-3.7v2.3z"/><path fill-rule="evenodd" class="a" d="m320.1 52.9v-2.2h3.9c0.9-0.3 2-0.6 2.4-0.9 0.6-0.5 0.9-1.3 0.9-2.5v-37.5c0-2.1-1.4-3.4-3.4-3.4h-3.8v-2.4h25.6c5.5 0 9.8 1.2 13.7 3.7 6.6 4.2 10.5 11.7 10.5 20.1 0 14.6-9.9 25.1-23.5 25.1zm20.4-2.1h5.4c8.6 0 12.5-7 12.5-22.1 0-2.9-0.2-6.9-0.5-9.6-0.6-3.9-1.5-6.6-2.7-8.5-1.7-2.7-5.1-4.4-8.5-4.4h-6.3c-2.1 0-2.6 0.6-2.6 2.9v38.5c0 2.4 0.7 3.2 2.7 3.2zm39.9-40.3c4.3-4.9 9.6-7.2 16.8-7.2 7.1 0 12.6 2.4 16.6 7.2 4.1 4.8 6.2 10.9 6.2 18 0 15-9.2 25.1-22.8 25.1-13.7 0-22.8-10.1-22.8-25.1 0-7.1 2.1-13.4 6-18zm5.3 18c0 7 0.3 10.6 1.4 14.1 1.4 5.3 4.8 8.1 10.1 8.1 5.2 0 8.7-2.8 10.1-8.1 1-3.5 1.2-7.1 1.2-14.1 0-7.1-0.2-10.7-1.2-14.2-1.5-5.3-4.9-8.1-10.1-8.1-5.3 0-8.8 2.8-10.1 8.1-1.1 3.5-1.4 7.1-1.4 14.2z"/><path class="a" d="m0 52.9h43.9l1.4-15.7h-2.6c-1 8.7-6.6 13.5-15.8 13.5h-6.8c-1.8 0-2.5-0.9-2.5-2.8v-20.5h3.5c3.6 0 6.8 0.8 8.2 2.1 1.4 1.4 2.4 3.9 2.4 6.2 0 0.4 0 0.9 0 1.3h2.5v-21.3l-2.5-0.1v0.5c0 5.9-3.8 9.1-10.6 9.1h-3.5v-16.7c0-1.8 0.5-2.3 2.2-2.3h6.8c5.3 0 8.1 0.8 11 3.2 2.2 1.8 3.9 4.4 4.3 6.8q0.2 0.9 0.3 2.5h2.8l-1.1-14.7h-43.9v2.4h3.8c2 0 3.3 1.2 3.3 3.3v37.6c0 2-1.3 3.3-3.4 3.3h-3.7zm46-46.5h3.7c2.1 0 3.5 1.3 3.5 3.4v37.4c0 1.3-0.3 2-0.8 2.6-0.5 0.3-1.5 0.6-2.5 0.8h-3.9v2.3h42l1-19.3h-2.8c-1.6 10.9-6.8 17.1-14.6 17.1h-5.4c-1.8 0-2.6-0.9-2.6-2.9v-38c0-2.1 1.3-3.4 3.3-3.4h3.8v-2.4h-24.7z"/><path class="b" d="m146.4 40.1q0.6-1.3 1.1-2.6 0.5-1.4 0.8-2.7 0.4-1.4 0.6-2.8 0.2-1.4 0.2-2.8h-26.2v11.1h23.4c0 0-0.1 0 0.1-0.2zm-26.4-25.7h-23.2q-0.8 1.4-1.3 2.8-0.6 1.4-1.1 2.9-0.4 1.5-0.7 3.1-0.2 1.5-0.3 3h26.6c0 0 0-11.8 0-11.8zm2.9 0v11.8h26.2q-0.1-1.5-0.3-3-0.3-1.6-0.7-3.1-0.5-1.5-1-2.9-0.6-1.4-1.4-2.8zm-2.9 14.8h-26.6q0.1 1.4 0.3 2.8 0.2 1.5 0.5 2.9 0.4 1.4 0.9 2.7 0.5 1.4 1.2 2.7h23.7c0 0 0-11.1 0-11.1zm0 14h-22.1c4.8 7.3 12.9 12.1 22.1 12.6zm2.9-31.8h21c-4.8-6.5-12.4-10.9-21-11.4zm0 31.7v12.5c9.1-0.5 17-5.3 21.7-12.5zm-2.9-31.7v-11.5c-8.8 0.4-16.5 4.8-21.3 11.5z"/></svg>