<?xml version="1.0" encoding="UTF-8" standalone="no"?>
<svg
   xmlns:dc="http://purl.org/dc/elements/1.1/"
   xmlns:cc="http://creativecommons.org/ns#"
   xmlns:rdf="http://www.w3.org/1999/02/22-rdf-syntax-ns#"
   xmlns:svg="http://www.w3.org/2000/svg"
   xmlns="http://www.w3.org/2000/svg"
   xmlns:sodipodi="http://sodipodi.sourceforge.net/DTD/sodipodi-0.dtd"
   xmlns:inkscape="http://www.inkscape.org/namespaces/inkscape"
   version="1.0"
   width="420"
   height="56"
   viewBox="0 0 150.00001 150.00001"
   preserveAspectRatio="xMidYMid meet"
   id="svg54"
   sodipodi:docname="OKDIARIO.svg"
   inkscape:version="1.0.1 (3bc2e813f5, 2020-09-07)">
  <metadata
     id="metadata60">
    <rdf:RDF>
      <cc:Work
         rdf:about="">
        <dc:format>image/svg+xml</dc:format>
        <dc:type
           rdf:resource="http://purl.org/dc/dcmitype/StillImage" />
        <dc:title></dc:title>
      </cc:Work>
    </rdf:RDF>
  </metadata>
  <defs
     id="defs58" />
  <sodipodi:namedview
     pagecolor="#ffffff"
     bordercolor="#666666"
     borderopacity="1"
     objecttolerance="10"
     gridtolerance="10"
     guidetolerance="10"
     inkscape:pageopacity="0"
     inkscape:pageshadow="2"
     inkscape:window-width="1366"
     inkscape:window-height="705"
     id="namedview56"
     showgrid="false"
     units="px"
     inkscape:zoom="2"
     inkscape:cx="156.42795"
     inkscape:cy="113.81727"
     inkscape:window-x="-8"
     inkscape:window-y="-8"
     inkscape:window-maximized="1"
     inkscape:current-layer="svg54" />
  <g
     transform="matrix(0.04467468,0,0,-0.04467468,-15.086908,183.16784)"
     fill="#000000"
     stroke="none"
     id="g52">
    <path
       d="m 2120,2570 v -960 h 145 145 v 272 273 l -142,142 -143,143 143,143 142,142 v 403 402 h -145 -145 z"
       id="path2" />
    <path
       d="m 1061,3009 c -258,-67 -460,-270 -528,-529 -23,-89 -23,-272 1,-360 68,-252 253,-442 506,-522 64,-20 95,-23 210,-22 117,1 145,4 215,27 117,39 199,91 295,187 144,144 213,308 213,510 0,128 -20,215 -74,325 -96,194 -265,332 -475,385 -103,27 -261,26 -363,-1 z m 340,-299 c 111,-43 208,-140 251,-250 32,-83 36,-208 9,-288 -55,-163 -182,-272 -349,-302 -182,-33 -376,69 -460,240 -120,245 14,540 279,615 73,20 197,14 270,-15 z"
       id="path6" />
    <path
       d="m 2822,2067 -102,-102 178,-178 177,-177 h 210 210 l -280,280 c -154,154 -282,280 -285,280 -3,0 -51,-46 -108,-103 z"
       id="path32" />
  </g>
  <g
     inkscape:groupmode="layer"
     id="layer2"
     inkscape:label="Layer 2"
     style="display:inline">
    <rect
       style="fill:#00a0ce;fill-opacity:1;fill-rule:evenodd;stroke-width:0.687758"
       id="rect62"
       width="12.431991"
       height="52.380329"
       x="126.17273"
       y="-60.170708"
       transform="rotate(45)" />
    <rect
       style="fill:#00a0ce;fill-opacity:1;fill-rule:evenodd;stroke-width:0.349652"
       id="rect64"
       width="25.908812"
       height="12.828368"
       x="112.69591"
       y="-20.618725"
       transform="rotate(45)" />
  </g>
</svg>
